<svg width="48" height="49" viewBox="0 0 48 49" fill="none" xmlns="http://www.w3.org/2000/svg">
<g clip-path="url(#clip0_31_1417)">
<g clip-path="url(#clip1_31_1417)">
<path d="M28.5566 16.7447C28.5566 24.4035 22.3502 30.6099 14.6914 30.6099C7.0325 30.6099 0.826172 24.4035 0.826172 16.7447C0.826172 9.08578 7.0325 2.87946 14.6914 2.87946C22.3502 2.87946 28.5566 9.08578 28.5566 16.7447Z" fill="white"/>
<path d="M24.9267 16.7446C24.9267 22.4062 20.3379 26.9784 14.6928 26.9784C9.0312 26.9784 4.45898 22.3897 4.45898 16.7446C4.45898 11.0995 9.04771 6.51074 14.6928 6.51074C20.3544 6.51074 24.9267 11.0995 24.9267 16.7446Z" fill="#AD3190"/>
<path d="M28.3925 16.7446C28.3925 24.3045 22.2522 30.4448 14.6923 30.4448C7.11598 30.4448 0.992188 24.3045 0.992188 16.7446C0.992188 9.1848 7.13249 3.04449 14.6923 3.04449C22.2687 3.04449 28.3925 9.1848 28.3925 16.7446Z" stroke="#3A032D" stroke-width="1.98074" stroke-linecap="round" stroke-linejoin="round"/>
<path d="M22.6155 16.7446C22.6155 24.3044 19.0666 30.4447 14.6925 30.4447C10.3184 30.4447 6.76953 24.3044 6.76953 16.7446C6.76953 9.18474 10.3184 3.04443 14.6925 3.04443C19.0666 3.04443 22.6155 9.18474 22.6155 16.7446Z" stroke="#3A032D" stroke-width="1.98074" stroke-linecap="round" stroke-linejoin="round"/>
<path d="M14.6914 30.4447C22.2512 30.4447 28.3915 24.3044 28.3915 16.7446C28.3915 9.18474 22.2512 3.04443 14.6914 3.04443V30.4447Z" stroke="#3A032D" stroke-width="1.98074" stroke-linecap="round" stroke-linejoin="round"/>
<path d="M0.992188 16.7446C0.992188 18.4447 1.32231 20.0788 1.88352 21.5809H27.5011C28.0623 20.0788 28.3925 18.4612 28.3925 16.7446C28.3925 15.0444 28.0623 13.4103 27.5011 11.9083H1.88352C1.32231 13.4268 0.992188 15.0444 0.992188 16.7446Z" stroke="#3A032D" stroke-width="1.98074" stroke-linecap="round" stroke-linejoin="round"/>
<path d="M47.0096 11.9249H14.707V45.8121H47.0096V11.9249Z" fill="white" stroke="#3A032D" stroke-width="1.98074"/>
<path d="M47.0096 11.9249H14.707V17.6195H47.0096V11.9249Z" fill="white" stroke="#3A032D" stroke-width="1.98074"/>
<path d="M16.9355 14.7309H31.1639" stroke="#3A032D" stroke-width="1.98074"/>
<path d="M42.9824 14.7309H44.8311" stroke="#3A032D" stroke-width="1.98074"/>
<path d="M20.8301 33.8286H40.8851" stroke="#3A032D" stroke-width="1.98074"/>
<path d="M40.8851 21.7626H20.8301V30.1807H40.8851V21.7626Z" fill="#FDB71C"/>
<path d="M20.8301 38.0377H40.8851" stroke="#3A032D" stroke-width="1.98074"/>
</g>
</g>
<defs>
<clipPath id="clip0_31_1417">
<rect width="48" height="48" fill="white" transform="translate(0 0.0541992)"/>
</clipPath>
<clipPath id="clip1_31_1417">
<rect width="48" height="44.7483" fill="white" transform="translate(0 2.0542)"/>
</clipPath>
</defs>
</svg>
