<svg width="48" height="49" viewBox="0 0 48 49" fill="none" xmlns="http://www.w3.org/2000/svg">
<g clip-path="url(#clip0_31_1444)">
<g clip-path="url(#clip1_31_1444)">
<path d="M24.3262 3.15493V-0.190918" stroke="#3A032D" stroke-width="2.0176"/>
<path d="M13.9692 5.77782L12.3047 2.88593" stroke="#3A032D" stroke-width="2.0176"/>
<path d="M6.31963 13.2261L3.42773 11.5448" stroke="#3A032D" stroke-width="2.0176"/>
<path d="M3.42788 23.4822H0.0820312" stroke="#3A032D" stroke-width="2.0176"/>
<path d="M6.05009 33.8392L3.1582 35.5038" stroke="#3A032D" stroke-width="2.0176"/>
<path d="M13.4997 41.4893L11.8184 44.3812" stroke="#3A032D" stroke-width="2.0176"/>
<path d="M23.7559 44.3812V47.7271" stroke="#3A032D" stroke-width="2.0176"/>
<path d="M34.1113 41.7583L35.7758 44.6502" stroke="#3A032D" stroke-width="2.0176"/>
<path d="M41.7617 34.31L44.6536 35.9913" stroke="#3A032D" stroke-width="2.0176"/>
<path d="M44.6543 24.0539H48.0001" stroke="#3A032D" stroke-width="2.0176"/>
<path d="M42.0312 13.6969L44.9231 12.0323" stroke="#3A032D" stroke-width="2.0176"/>
<path d="M34.582 6.0468L36.2634 3.15491" stroke="#3A032D" stroke-width="2.0176"/>
<path d="M41.5264 23.7681C41.5264 33.4189 33.6914 41.2539 24.0405 41.2539C14.3729 41.2539 6.55469 33.4189 6.55469 23.7681C6.55469 14.1172 14.3897 6.28223 24.0405 6.28223C33.6914 6.28223 41.5264 14.1172 41.5264 23.7681Z" fill="#AD3190"/>
<path d="M23.4693 24.3396C21.8889 22.7592 19.7872 21.8849 17.551 21.8849C15.3149 21.8849 13.2132 22.7592 11.6327 24.3396L3.78092 32.1746C2.20046 33.7551 1.32617 35.8568 1.32617 38.0929C1.32617 40.3291 2.20046 42.4308 3.78092 44.0112C5.36137 45.5917 7.46303 46.466 9.69921 46.466C11.9354 46.466 14.037 45.5917 15.6175 44.0112L23.4525 36.1762C26.7311 32.9312 26.7311 27.6182 23.4693 24.3396ZM19.9553 32.679L12.1203 40.514C10.7921 41.8423 8.62315 41.8423 7.2949 40.514C5.96665 39.1858 5.96665 37.0169 7.2949 35.6886L15.1299 27.8536C16.4582 26.5254 18.6271 26.5254 19.9553 27.8536C21.2836 29.1819 21.2836 31.3508 19.9553 32.679Z" fill="white" stroke="#3A032D" stroke-width="2.0176"/>
<path d="M44.3002 3.50797C42.7197 1.92752 40.618 1.05322 38.3819 1.05322C36.1457 1.05322 34.044 1.92752 32.4636 3.50797L24.6286 11.343C23.0481 12.9234 22.1738 15.0251 22.1738 17.2613C22.1738 19.4974 23.0481 21.5991 24.6286 23.1796C26.209 24.76 28.3107 25.6343 30.5469 25.6343C32.783 25.6343 34.8847 24.76 36.4652 23.1796L44.3002 15.3614C47.5788 12.0828 47.5788 6.76975 44.3002 3.50797ZM40.803 11.8474L32.968 19.6824C31.6397 21.0106 29.4708 21.0106 28.1426 19.6824C26.8143 18.3541 26.8143 16.1852 28.1426 14.857L35.9776 7.02195C37.3058 5.6937 39.4747 5.6937 40.803 7.02195C42.1312 8.3502 42.1312 10.5191 40.803 11.8474Z" fill="white" stroke="#3A032D" stroke-width="2.0176"/>
<path d="M19.8704 32.7631C18.5422 34.0914 16.3733 34.0914 15.045 32.7631C13.7168 31.4349 13.7168 29.2659 15.045 27.9377L28.0585 14.9242C29.3868 13.5959 31.5557 13.5959 32.884 14.9242C34.2122 16.2524 34.2122 18.4213 32.884 19.7496L19.8704 32.7631Z" fill="white" stroke="#3A032D" stroke-width="2.0176"/>
</g>
</g>
<defs>
<clipPath id="clip0_31_1444">
<rect width="48" height="48" fill="white" transform="translate(0 0.0541992)"/>
</clipPath>
<clipPath id="clip1_31_1444">
<rect width="47.918" height="47.918" fill="white" transform="translate(0.0820312 -0.190918)"/>
</clipPath>
</defs>
</svg>
