<svg width="48" height="49" viewBox="0 0 48 49" fill="none" xmlns="http://www.w3.org/2000/svg">
<g clip-path="url(#clip0_31_1471)">
<g clip-path="url(#clip1_31_1471)">
<path d="M18.8732 46.9993C11.0557 46.9993 4.72266 44.6816 4.72266 36.7695V23.4069C4.72266 15.4948 11.0557 9.08521 18.8732 9.08521H24.2586C32.0762 9.08521 38.4091 15.4948 38.4091 23.4069V36.7695" stroke="#3A032D" stroke-width="1.91855"/>
<path d="M20.2771 45.8485C20.2771 46.5358 19.7244 47.0952 19.0295 47.0952H15.8551C15.176 47.0952 14.6074 46.5358 14.6074 45.8485C14.6074 45.1612 15.1602 44.6017 15.8551 44.6017H19.0295C19.7086 44.5857 20.2771 45.1452 20.2771 45.8485Z" fill="white" stroke="#3A032D" stroke-width="1.91855"/>
<path d="M36.3706 17.8445C35.7546 17.8445 35.1545 17.5248 34.8071 16.9494C32.5645 13.1771 28.6162 10.9234 24.2573 10.9234H18.8719C14.513 10.9234 10.5648 13.1771 8.30639 16.9494C7.78522 17.8125 6.66392 18.1002 5.8111 17.5727C4.95827 17.0453 4.674 15.9104 5.19517 15.0473C8.11688 10.1562 13.2338 7.24707 18.8719 7.24707H24.2573C29.8954 7.24707 35.0124 10.1721 37.9341 15.0633C38.4552 15.9264 38.171 17.0613 37.3182 17.5887C37.0181 17.7646 36.7022 17.8445 36.3706 17.8445Z" fill="#AD3190" stroke="#3A032D" stroke-width="1.91855"/>
<path d="M6.55378 24.222H5.47986C2.96877 24.222 0.947266 26.268 0.947266 28.8095V34.4838C0.947266 37.0093 2.96877 39.0552 5.47986 39.0552H6.55378V24.222Z" fill="#AD3190" stroke="#3A032D" stroke-width="1.91855"/>
<path d="M9.56993 38.7036C9.56993 39.5508 8.89084 40.2381 8.05381 40.2381H6.34816C5.51113 40.2381 4.83203 39.5508 4.83203 38.7036V24.6697C4.83203 23.8225 5.51113 23.1352 6.34816 23.1352H8.05381C8.89084 23.1352 9.56993 23.8225 9.56993 24.6697V38.7036Z" fill="white" stroke="#3A032D" stroke-width="1.91855"/>
<path d="M36.7188 39.1511H37.7927C40.288 39.1511 42.3253 37.1051 42.3253 34.5637V28.8894C42.3253 26.3639 40.3038 24.3019 37.7927 24.3019H36.7188V39.1511Z" fill="#AD3190" stroke="#3A032D" stroke-width="1.91855"/>
<path d="M33.6855 24.6696C33.6855 23.8224 34.3646 23.1351 35.2017 23.1351H36.9073C37.7443 23.1351 38.4234 23.8224 38.4234 24.6696V38.7036C38.4234 39.5507 37.7443 40.238 36.9073 40.238H35.2175C34.3804 40.238 33.7013 39.5507 33.7013 38.7036V24.6696H33.6855Z" fill="white" stroke="#3A032D" stroke-width="1.91855"/>
<path d="M41.2977 7.29498H21.209" stroke="#3A032D" stroke-width="1.91855"/>
<path d="M41.2977 11.7385H21.209" stroke="#3A032D" stroke-width="1.91855"/>
<path d="M16.9922 31.4149H18.9505" stroke="#3A032D" stroke-width="1.91855"/>
<path d="M20.625 31.4149H22.5833" stroke="#3A032D" stroke-width="1.91855"/>
<path d="M24.2578 31.4149H26.2161" stroke="#3A032D" stroke-width="1.91855"/>
<g clip-path="url(#clip2_31_1471)">
<path d="M46.5586 0.707214H16.793V18.4702H21.507V24.0542L27.6788 18.4702H46.5586V0.707214Z" fill="white" stroke="#3A032D" stroke-width="1.41069"/>
<path d="M23.7063 16.2718H18.9922V2.90552H44.3611V16.2718H26.8333H23.7063Z" fill="#FDB71C"/>
<path d="M27.0905 9.50054C27.0905 10.2412 26.4909 10.8407 25.7503 10.8407C25.0097 10.8407 24.4102 10.2412 24.4102 9.50054C24.4102 8.75993 25.0097 8.16038 25.7503 8.16038C26.4909 8.14863 27.0905 8.75993 27.0905 9.50054Z" fill="white"/>
<path d="M33.028 9.50054C33.028 10.2412 32.4284 10.8407 31.6878 10.8407C30.9472 10.8407 30.3477 10.2412 30.3477 9.50054C30.3477 8.75993 30.9472 8.16038 31.6878 8.16038C32.4167 8.14863 33.028 8.75993 33.028 9.50054Z" fill="white"/>
<path d="M38.9518 9.50054C38.9518 10.2412 38.3523 10.8407 37.6116 10.8407C36.871 10.8407 36.2715 10.2412 36.2715 9.50054C36.2715 8.75993 36.871 8.16038 37.6116 8.16038C38.3523 8.14863 38.9518 8.75993 38.9518 9.50054Z" fill="white"/>
</g>
</g>
</g>
<defs>
<clipPath id="clip0_31_1471">
<rect width="48" height="48" fill="white" transform="translate(0 0.0541992)"/>
</clipPath>
<clipPath id="clip1_31_1471">
<rect width="47" height="48" fill="white" transform="translate(0 0.0541992)"/>
</clipPath>
<clipPath id="clip2_31_1471">
<rect width="32" height="24.3701" fill="white" transform="translate(15 0.0541992)"/>
</clipPath>
</defs>
</svg>
