<svg width="48" height="49" viewBox="0 0 48 49" fill="none" xmlns="http://www.w3.org/2000/svg">
<g clip-path="url(#clip0_31_1510)">
<g clip-path="url(#clip1_31_1510)">
<path d="M38.5736 17.8964H0.947266V42.4648H38.5736V17.8964Z" stroke="#3A032D" stroke-width="1.89474"/>
<path d="M35.7312 20.7384H3.78906V39.6226H35.7312V20.7384Z" fill="#FDB71C"/>
<path d="M38.5736 12.2279H0.947266V17.8805H38.5736V12.2279Z" fill="white" stroke="#3A032D" stroke-width="1.89474"/>
<path d="M3.1582 15.0226H4.98978" stroke="#3A032D" stroke-width="1.89474"/>
<path d="M6.34766 15.0226H8.17924" stroke="#3A032D" stroke-width="1.89474"/>
<path d="M9.52148 15.0226H11.3531" stroke="#3A032D" stroke-width="1.89474"/>
<path d="M27.3457 16.5541L31.372 14.8331L35.3983 13.1278L43.9878 33.3541L39.1562 33.1804L35.9352 36.7647L27.3457 16.5541Z" fill="white" stroke="#3A032D" stroke-width="1.89474"/>
<path d="M29.1306 14.0278L33.1885 15.6541L37.2464 17.2963L29.0201 37.6647L25.7201 34.1436L20.9043 34.3963L29.1306 14.0278Z" fill="white" stroke="#3A032D" stroke-width="1.89474"/>
<path d="M47.9995 15.6068C47.9995 16.3963 46.5626 17.0594 46.4363 17.8173C46.31 18.591 47.4784 19.6805 47.2416 20.4068C47.0047 21.1489 45.4258 21.3384 45.0784 22.0331C44.731 22.7278 45.4889 24.1173 45.031 24.7489C44.5732 25.3805 43.01 25.0805 42.4731 25.6173C41.9205 26.1699 42.2205 27.7173 41.6047 28.1752C40.9731 28.6331 39.5837 27.8594 38.8889 28.2226C38.1942 28.5699 38.0047 30.1489 37.2626 30.3857C36.5363 30.6226 35.4468 29.4699 34.6732 29.5805C33.9153 29.7068 33.2521 31.1436 32.4626 31.1436C31.6732 31.1436 31.01 29.7068 30.2521 29.5805C29.4784 29.4542 28.3889 30.6226 27.6626 30.3857C26.9205 30.1489 26.731 28.5699 26.0363 28.2226C25.3416 27.8752 23.9521 28.6331 23.3205 28.1752C22.6889 27.7173 22.9889 26.1542 22.4521 25.6173C21.8995 25.0647 20.3521 25.3805 19.8942 24.7489C19.4363 24.1173 20.21 22.7278 19.8468 22.0331C19.4995 21.3384 17.9205 21.1489 17.6837 20.4068C17.4468 19.6805 18.5995 18.591 18.4889 17.8173C18.3626 17.0594 16.9258 16.3963 16.9258 15.6068C16.9258 14.8173 18.3626 14.1542 18.4889 13.3963C18.6153 12.6226 17.4468 11.5331 17.6837 10.8068C17.9205 10.0647 19.4995 9.87521 19.8468 9.18047C20.1942 8.48574 19.4363 7.09626 19.8942 6.46468C20.3521 5.8331 21.9153 6.1331 22.4521 5.59626C23.0047 5.04363 22.7047 3.49626 23.3205 3.03837C23.9521 2.58047 25.3416 3.35416 26.0363 2.991C26.731 2.64363 26.9205 1.06468 27.6626 0.827841C28.3889 0.590999 29.4784 1.74363 30.2521 1.6331C31.01 1.50679 31.6732 0.0699463 32.4626 0.0699463C33.2521 0.0699463 33.9153 1.50679 34.6732 1.6331C35.4468 1.75942 36.5363 0.590999 37.2626 0.827841C38.0047 1.06468 38.1942 2.64363 38.8889 2.991C39.5837 3.33837 40.9731 2.58047 41.6047 3.03837C42.2363 3.49626 41.9363 5.05942 42.4731 5.59626C43.0258 6.14889 44.5732 5.84889 45.031 6.46468C45.4889 7.09626 44.7153 8.48574 45.0784 9.18047C45.4258 9.87521 47.0047 10.0647 47.2416 10.8068C47.4784 11.5331 46.3258 12.6226 46.4363 13.3963C46.5626 14.1384 47.9995 14.8173 47.9995 15.6068Z" fill="#AD3190"/>
<path d="M42.5204 15.6068C42.5204 21.1647 38.0046 25.6805 32.4467 25.6805C26.8888 25.6805 22.373 21.1647 22.373 15.6068C22.373 10.0489 26.8888 5.53308 32.4467 5.53308C38.0046 5.53308 42.5204 10.0489 42.5204 15.6068Z" fill="white" stroke="#3A032D" stroke-width="1.89474"/>
<path d="M32.2267 11.0278L33.5688 13.7436L36.553 14.1699L34.3899 16.2857L34.8951 19.2699L32.2267 17.8489L29.5583 19.2699L30.0635 16.2857L27.9004 14.1699L30.8846 13.7436L32.2267 11.0278Z" fill="#FDB71C"/>
</g>
</g>
<defs>
<clipPath id="clip0_31_1510">
<rect width="48" height="48" fill="white" transform="translate(0 0.0541992)"/>
</clipPath>
<clipPath id="clip1_31_1510">
<rect width="48" height="43.3579" fill="white" transform="translate(0 0.0541992)"/>
</clipPath>
</defs>
</svg>
