<svg width="48" height="49" viewBox="0 0 48 49" fill="none" xmlns="http://www.w3.org/2000/svg">
<g clip-path="url(#clip0_31_1537)">
<g clip-path="url(#clip1_31_1537)">
<path d="M26.0834 34.5851H19.8672V41.8188H26.0834V34.5851Z" fill="#AD3190"/>
<path d="M20.8047 34.5692V32.4388H25.1449V34.5692" fill="white"/>
<path d="M20.8047 34.5692V32.4388H25.1449V34.5692" stroke="#3A032D" stroke-width="1.90779"/>
<path d="M25.1449 41.8346C25.1449 42.1844 25.1449 42.5341 25.1449 42.868C23.9525 44.0603 22.013 44.0603 20.8047 42.868C20.8047 42.5182 20.8047 42.1685 20.8047 41.8346" fill="white"/>
<path d="M25.1449 41.8346C25.1449 42.1844 25.1449 42.5341 25.1449 42.868C23.9525 44.0603 22.013 44.0603 20.8047 42.868C20.8047 42.5182 20.8047 42.1685 20.8047 41.8346" stroke="#3A032D" stroke-width="1.90779"/>
<path d="M24.6211 31.8982V28.639" stroke="#3A032D" stroke-width="1.90779"/>
<path d="M21.3457 31.8982V28.639" stroke="#3A032D" stroke-width="1.90779"/>
<path d="M35.177 17.4626C35.177 14.2035 33.9051 11.1352 31.5999 8.82991C29.2947 6.52467 26.2263 5.25281 22.9513 5.25281C19.6921 5.26871 16.6397 6.52467 14.3503 8.82991C9.59676 13.5835 9.59676 21.3259 14.3503 26.0954C16.6556 28.4006 19.7398 29.6725 23.0149 29.6725C26.274 29.6725 29.3265 28.4006 31.6158 26.0954C33.9051 23.7901 35.177 20.7218 35.177 17.4626Z" fill="white" stroke="#3A032D" stroke-width="1.90779"/>
<path d="M29.6454 24.1081C27.8648 25.9046 25.4959 26.8743 22.984 26.8743C17.8012 26.8743 13.5723 22.6613 13.5723 17.4785C13.5723 14.9825 14.5421 12.6136 16.3227 10.8489C18.1033 9.06833 20.4721 8.08264 22.984 8.08264C25.4959 8.08264 27.8489 9.05243 29.6295 10.833C31.4101 12.6136 32.3799 14.9666 32.3958 17.4785C32.3958 19.9745 31.4101 22.3275 29.6454 24.1081Z" fill="#FDB71C"/>
<path d="M15.75 17.4784C15.75 15.6024 16.4813 13.8377 17.8009 12.5182C19.1363 11.1827 20.901 10.4514 22.777 10.4514" stroke="white" stroke-width="1.90779"/>
<path d="M23.1094 1.00806C32.1078 1.00806 40.5974 5.9524 46.9885 14.919" stroke="#3A032D" stroke-width="1.90779"/>
<path d="M34.8428 26.2703C38.4994 24.0923 41.8062 20.9126 44.6043 16.9858C39.024 9.16384 31.4565 4.34668 23.1099 4.34668C14.7474 4.34668 7.17989 9.16384 1.59961 16.9858C4.35 20.8331 7.57734 23.9651 11.1544 26.1431" stroke="#3A032D" stroke-width="1.90779"/>
</g>
</g>
<defs>
<clipPath id="clip0_31_1537">
<rect width="48" height="48" fill="white" transform="translate(0 0.0541992)"/>
</clipPath>
<clipPath id="clip1_31_1537">
<rect width="47.329" height="44.674" fill="white" transform="translate(0.423828 0.0541992)"/>
</clipPath>
</defs>
</svg>
