<svg width="48" height="49" viewBox="0 0 48 49" fill="none" xmlns="http://www.w3.org/2000/svg">
<g clip-path="url(#clip0_31_1561)">
<g clip-path="url(#clip1_31_1561)">
<path d="M40.0029 30.4605V43.0136H8.2793V21.4099" stroke="#3A032D" stroke-width="1.85971"/>
<path d="M40.0039 15.0868V25.2377" stroke="#3A032D" stroke-width="1.85971"/>
<path d="M8.2793 18.3878V6.33069H40.0029V11.4139" stroke="#3A032D" stroke-width="1.85971"/>
<path d="M39.9874 0.984009H8.2793V6.33069H39.9874V0.984009Z" fill="white" stroke="#3A032D" stroke-width="1.85971"/>
<path d="M10.3711 3.61865H12.1223" stroke="#3A032D" stroke-width="1.85971"/>
<path d="M13.3926 3.61865H15.1283" stroke="#3A032D" stroke-width="1.85971"/>
<path d="M16.4004 3.61865H18.1361" stroke="#3A032D" stroke-width="1.85971"/>
<path d="M47.07 28.2598V17.2565C47.07 15.4897 45.6442 14.064 43.8775 14.064H35.8962C34.1295 14.064 32.7037 15.4897 32.7037 17.2565V21.1309H11.9679H8.32592H5.8153H2.15786H0.453125V22.9596V24.7883H2.15786V28.8797V31.3903H3.98658H5.8153V28.8797H8.32592V31.3903H10.1546H11.9834V24.7883H32.7347V28.2598C32.7347 30.0265 34.1605 31.4523 35.9272 31.4523H43.9085C45.6442 31.4523 47.07 30.0265 47.07 28.2598ZM43.428 27.8104H36.3611V17.7059H43.428V27.8104Z" fill="#AD3190" stroke="#3A032D" stroke-width="1.85971"/>
<path d="M8.32617 31.3903V24.0599" stroke="#3A032D" stroke-width="1.85971"/>
<path d="M11.0527 38.4883H26.2869" stroke="#3A032D" stroke-width="1.85971"/>
<path d="M11.0527 35.0013H30.1148" stroke="#3A032D" stroke-width="1.85971"/>
<path d="M15.084 31.5144H30.1167" stroke="#3A032D" stroke-width="1.85971"/>
<path d="M15.084 28.0273H30.1167" stroke="#3A032D" stroke-width="1.85971"/>
<path d="M11.0527 17.5665H30.1148" stroke="#3A032D" stroke-width="1.85971"/>
<path d="M11.0527 14.0795H30.1148" stroke="#3A032D" stroke-width="1.85971"/>
<path d="M11.0527 10.5925H24.4272" stroke="#3A032D" stroke-width="1.85971"/>
</g>
</g>
<defs>
<clipPath id="clip0_31_1561">
<rect width="48" height="48" fill="white" transform="translate(0 0.0541992)"/>
</clipPath>
<clipPath id="clip1_31_1561">
<rect width="48.4766" height="43.8893" fill="white" transform="translate(-0.476562 0.0541992)"/>
</clipPath>
</defs>
</svg>
