<svg width="327" height="286" viewBox="0 0 327 286" fill="none" xmlns="http://www.w3.org/2000/svg">
<rect x="32.4375" y="36.8237" width="261.55" height="214.201" stroke="#B894C0" stroke-width="1.5" stroke-dasharray="10 12"/>
<path d="M191.273 75.531H1V98.3287H191.273V75.531Z" fill="#EDEFFF"/>
<path d="M191.273 75.531H1V98.3287H191.273V75.531Z" fill="#844375"/>
<path d="M191.273 75.531H1V98.3287H191.273V75.531Z" stroke="#844375"/>
<path d="M10.0273 86.8079H17.2265" stroke="#F7EBF4" stroke-width="7.01467"/>
<path d="M22.4961 86.8079H29.6953" stroke="#F7EBF4" stroke-width="7.01467"/>
<path d="M34.9668 86.8079H42.2303" stroke="#F7EBF4" stroke-width="7.01467"/>
<path d="M191.273 98.4783V230.003H1V98.4783H191.273Z" fill="white" stroke="#844375"/>
<path d="M21.8173 127.438C21.8173 127.037 22.1494 126.712 22.5591 126.712H25.2565C25.6662 126.712 25.9983 127.037 25.9983 127.438V129.171C26.7718 129.366 27.502 129.665 28.172 130.054L29.4233 128.828C29.713 128.544 30.1827 128.544 30.4724 128.828L32.3798 130.696C32.6694 130.98 32.6694 131.44 32.3798 131.724L31.1285 132.95C31.5249 133.606 31.8309 134.322 32.0295 135.079H33.7984C34.2081 135.079 34.5402 135.405 34.5402 135.806V138.448C34.5402 138.85 34.2081 139.175 33.7984 139.175H32.0295C31.8309 139.933 31.5249 140.648 31.1285 141.304L32.3798 142.53C32.6694 142.814 32.6694 143.274 32.3798 143.558L30.4724 145.426C30.1827 145.71 29.713 145.71 29.4233 145.426L28.172 144.2C27.502 144.589 26.7718 144.889 25.9983 145.083V146.816C25.9983 147.217 25.6662 147.543 25.2565 147.543H22.5591C22.1494 147.543 21.8173 147.217 21.8173 146.816V145.083C21.0438 144.889 20.3136 144.589 19.6436 144.2L18.3923 145.426C18.1026 145.71 17.6329 145.71 17.3432 145.426L15.4359 143.558C15.1462 143.274 15.1462 142.814 15.4359 142.53L16.6872 141.304C16.2907 140.648 15.9847 139.933 15.7861 139.175H14.0172C13.6075 139.175 13.2754 138.85 13.2754 138.448V135.806C13.2754 135.405 13.6075 135.079 14.0172 135.079H15.7861C15.9847 134.322 16.2907 133.606 16.6872 132.95L15.4359 131.724C15.1462 131.44 15.1462 130.98 15.4359 130.696L17.3432 128.828C17.6329 128.544 18.1026 128.544 18.3923 128.828L19.6436 130.054C20.3136 129.665 21.0438 129.366 21.8173 129.171V127.438ZM20.6934 137.127C20.6934 138.866 22.1325 140.276 23.9078 140.276C25.6831 140.276 27.1223 138.866 27.1223 137.127C27.1223 135.388 25.6831 133.978 23.9078 133.978C22.1325 133.978 20.6934 135.388 20.6934 137.127Z" fill="#F7EBF4"/>
<rect x="65.7871" y="127.77" width="5.261" height="22.5668" transform="rotate(90 65.7871 127.77)" fill="#B894C0"/>
<rect x="179.875" y="127.77" width="6.50965" height="107.144" transform="rotate(90 179.875 127.77)" fill="#B894C0"/>
<rect x="179.875" y="141.223" width="5.261" height="136.654" transform="rotate(90 179.875 141.223)" fill="#B894C0"/>
<rect x="89.2207" y="156.222" width="5.261" height="75.9458" transform="rotate(90 89.2207 156.222)" fill="#B894C0"/>
<rect x="179.873" y="156.222" width="6.50965" height="83.709" transform="rotate(90 179.873 156.222)" fill="#E4E4E4"/>
<rect x="64.0508" y="169.675" width="5.261" height="50.7752" transform="rotate(90 64.0508 169.675)" fill="#B894C0"/>
<rect x="179.873" y="169.675" width="6.50965" height="108.88" transform="rotate(90 179.873 169.675)" fill="#B894C0"/>
<rect x="42.7852" y="183.128" width="5.261" height="29.5104" transform="rotate(90 42.7852 183.128)" fill="#F7EBF4"/>
<rect x="70.668" y="195.333" width="5.261" height="57.3919" transform="rotate(90 70.668 195.333)" fill="#B894C0"/>
<path d="M250.019 1H76.4062V22.9209H250.019V1Z" fill="#EDEFFF"/>
<path d="M250.019 1H76.4062V22.9209H250.019V1Z" fill="#AD3190"/>
<path d="M250.019 1H76.4062V22.9209H250.019V1Z" stroke="#844375"/>
<path d="M85.084 11.9272H92.2832" stroke="#3A032D" stroke-width="7.01467"/>
<path d="M97.5547 11.9272H104.754" stroke="#3A032D" stroke-width="7.01467"/>
<path d="M110.023 11.9272H117.287" stroke="#3A032D" stroke-width="7.01467"/>
<rect x="76.4062" y="22.9209" width="173.613" height="262.03" fill="white"/>
<rect x="76.4062" y="22.9209" width="173.613" height="262.03" stroke="#844375"/>
<rect x="94.4434" y="40.9575" width="34.9999" height="34.9999" fill="#FDB71C"/>
<rect x="94.4434" y="40.9575" width="34.9999" height="34.9999" stroke="#3A032D"/>
<path d="M107.845 51.8682C107.845 49.6049 109.679 47.77 111.943 47.77C114.206 47.77 116.041 49.6049 116.041 51.8682C116.041 54.1316 114.206 55.9664 111.943 55.9664C109.679 55.9664 107.845 54.1316 107.845 51.8682ZM109.404 58.3771H114.482C115.535 58.3771 116.369 58.3771 117.042 58.4321C117.73 58.4883 118.312 58.6055 118.844 58.8763C119.705 59.3155 120.406 60.0162 120.845 60.8781C121.116 61.4095 121.233 61.9916 121.29 62.6795C121.345 63.3522 121.345 64.1868 121.345 65.2399V65.8503C121.345 66.2498 121.021 66.5735 120.621 66.5735H103.264C102.865 66.5735 102.541 66.2498 102.541 65.8503V65.2399C102.541 64.1868 102.541 63.3522 102.596 62.6795C102.652 61.9916 102.769 61.4096 103.04 60.8781C103.479 60.0162 104.18 59.3155 105.042 58.8763C105.573 58.6056 106.156 58.4883 106.843 58.4321C107.516 58.3771 108.351 58.3771 109.404 58.3771Z" fill="white"/>
<rect x="187.012" y="48.054" width="5.261" height="44.2113" transform="rotate(90 187.012 48.054)" fill="#B894C0"/>
<rect x="224.809" y="63.6006" width="5.261" height="82.0083" transform="rotate(90 224.809 63.6006)" fill="#B894C0"/>
<rect x="94.4434" y="94.6418" width="34.9999" height="34.9999" fill="#F7EBF4"/>
<rect x="94.4434" y="94.6418" width="34.9999" height="34.9999" stroke="#3A032D"/>
<path d="M107.845 105.552C107.845 103.289 109.679 101.454 111.943 101.454C114.206 101.454 116.041 103.289 116.041 105.552C116.041 107.816 114.206 109.651 111.943 109.651C109.679 109.651 107.845 107.816 107.845 105.552ZM109.404 112.061H114.482C115.535 112.061 116.369 112.061 117.042 112.116C117.73 112.172 118.312 112.29 118.844 112.56C119.705 113 120.406 113.7 120.845 114.562C121.116 115.094 121.233 115.676 121.29 116.364C121.345 117.036 121.345 117.871 121.345 118.924V119.534C121.345 119.934 121.021 120.258 120.621 120.258H103.264C102.865 120.258 102.541 119.934 102.541 119.534V118.924C102.541 117.871 102.541 117.036 102.596 116.364C102.652 115.676 102.769 115.094 103.04 114.562C103.479 113.7 104.18 113 105.042 112.56C105.573 112.29 106.156 112.172 106.843 112.116C107.516 112.061 108.351 112.061 109.404 112.061Z" fill="white"/>
<rect x="187.012" y="101.738" width="5.261" height="44.2113" transform="rotate(90 187.012 101.738)" fill="#B894C0"/>
<rect x="224.809" y="117.284" width="5.261" height="82.0083" transform="rotate(90 224.809 117.284)" fill="#B894C0"/>
<rect x="94.4434" y="148.326" width="34.9999" height="34.9999" fill="#B894C0"/>
<rect x="94.4434" y="148.326" width="34.9999" height="34.9999" stroke="#3A032D"/>
<path d="M107.845 159.237C107.845 156.974 109.679 155.139 111.943 155.139C114.206 155.139 116.041 156.974 116.041 159.237C116.041 161.501 114.206 163.336 111.943 163.336C109.679 163.336 107.845 161.501 107.845 159.237ZM109.404 165.746H114.482C115.535 165.746 116.369 165.746 117.042 165.801C117.73 165.857 118.312 165.975 118.844 166.245C119.705 166.685 120.406 167.385 120.845 168.247C121.116 168.779 121.233 169.361 121.29 170.049C121.345 170.721 121.345 171.556 121.345 172.609V173.219C121.345 173.619 121.021 173.943 120.621 173.943H103.264C102.865 173.943 102.541 173.619 102.541 173.219V172.609C102.541 171.556 102.541 170.721 102.596 170.049C102.652 169.361 102.769 168.779 103.04 168.247C103.479 167.385 104.18 166.685 105.042 166.245C105.573 165.975 106.156 165.857 106.843 165.801C107.516 165.746 108.351 165.746 109.404 165.746Z" fill="white"/>
<rect x="187.012" y="155.422" width="5.261" height="44.2113" transform="rotate(90 187.012 155.422)" fill="#F7EBF4"/>
<rect x="224.809" y="170.969" width="5.261" height="82.0083" transform="rotate(90 224.809 170.969)" fill="#B894C0"/>
<rect x="94.4434" y="202.011" width="35.2532" height="35.2532" fill="#844375" stroke="#3A032D"/>
<rect x="141.75" y="202.011" width="35.2532" height="35.2532" fill="#B894C0" stroke="#3A032D"/>
<rect x="189.055" y="202.011" width="35.2532" height="35.2532" fill="#F7EBF4" stroke="#3A032D"/>
<rect x="178.828" y="246.606" width="5.261" height="84.8856" transform="rotate(90 178.828 246.606)" fill="#B894C0"/>
<rect x="224.809" y="246.606" width="5.261" height="35.369" transform="rotate(90 224.809 246.606)" fill="#B894C0"/>
<rect x="144.344" y="262.153" width="5.261" height="50.4008" transform="rotate(90 144.344 262.153)" fill="#B894C0"/>
<path d="M325.428 79.9153H169.352V100.959H325.428V79.9153Z" fill="#EDEFFF"/>
<path d="M325.428 79.9153H169.352V100.959H325.428V79.9153Z" fill="#AD3190"/>
<path d="M325.428 79.9153H169.352V100.959H325.428V79.9153Z" stroke="#844375"/>
<path d="M176.467 90.4373H182.37" stroke="#3A032D" stroke-width="7.01467"/>
<path d="M186.691 90.4373H192.594" stroke="#3A032D" stroke-width="7.01467"/>
<path d="M196.918 90.4373H202.874" stroke="#3A032D" stroke-width="7.01467"/>
<path d="M325.428 100.959V192.15H169.352V100.959H325.428Z" fill="white" stroke="#844375"/>
<rect x="192.791" y="123.24" width="97.9991" height="5.261" fill="#B894C0"/>
<path d="M194.451 163.216L192.579 165.064L196.275 168.809L198.147 166.961L194.451 163.216ZM198.147 166.961L219.191 146.19L215.495 142.446L194.451 163.216L198.147 166.961Z" fill="#FDB71C"/>
<path d="M198.053 144.318H217.343V163.608" stroke="#FDB71C" stroke-width="5.261"/>
<path d="M239.605 137.659C240.461 137.666 241.305 137.822 242.136 138.128C242.968 138.434 243.718 138.935 244.387 139.629C245.062 140.322 245.6 141.26 246 142.442C246.406 143.617 246.613 145.08 246.619 146.83C246.619 148.512 246.45 150.009 246.113 151.322C245.775 152.629 245.29 153.732 244.659 154.633C244.034 155.533 243.274 156.217 242.38 156.686C241.486 157.155 240.48 157.39 239.361 157.39C238.217 157.39 237.201 157.164 236.313 156.714C235.425 156.264 234.703 155.642 234.147 154.848C233.59 154.048 233.243 153.129 233.106 152.091H235.966C236.154 152.916 236.535 153.585 237.11 154.098C237.692 154.604 238.442 154.858 239.361 154.858C240.767 154.858 241.865 154.245 242.652 153.02C243.44 151.788 243.837 150.069 243.843 147.862H243.693C243.368 148.4 242.962 148.862 242.474 149.25C241.993 149.637 241.452 149.938 240.852 150.15C240.252 150.363 239.611 150.469 238.929 150.469C237.823 150.469 236.816 150.197 235.91 149.653C235.003 149.109 234.281 148.362 233.744 147.412C233.206 146.462 232.937 145.377 232.937 144.158C232.937 142.945 233.212 141.845 233.762 140.857C234.319 139.869 235.094 139.088 236.088 138.513C237.088 137.931 238.26 137.647 239.605 137.659ZM239.614 140.097C238.882 140.097 238.223 140.279 237.635 140.641C237.054 140.998 236.594 141.482 236.257 142.095C235.919 142.701 235.75 143.376 235.75 144.12C235.75 144.864 235.913 145.539 236.238 146.146C236.569 146.746 237.019 147.224 237.588 147.581C238.164 147.931 238.82 148.106 239.558 148.106C240.108 148.106 240.62 148 241.096 147.787C241.571 147.574 241.986 147.281 242.343 146.905C242.699 146.524 242.977 146.093 243.177 145.611C243.377 145.13 243.477 144.624 243.477 144.092C243.477 143.386 243.309 142.729 242.971 142.123C242.64 141.517 242.183 141.029 241.602 140.66C241.021 140.285 240.358 140.097 239.614 140.097ZM256.693 157.446C255.211 157.44 253.945 157.049 252.895 156.274C251.845 155.498 251.041 154.37 250.485 152.888C249.928 151.407 249.65 149.622 249.65 147.534C249.65 145.452 249.928 143.673 250.485 142.198C251.047 140.723 251.854 139.597 252.904 138.822C253.961 138.047 255.224 137.659 256.693 137.659C258.162 137.659 259.422 138.05 260.472 138.831C261.522 139.607 262.325 140.732 262.882 142.207C263.444 143.677 263.726 145.452 263.726 147.534C263.726 149.628 263.448 151.416 262.891 152.898C262.335 154.373 261.531 155.502 260.481 156.283C259.431 157.058 258.168 157.446 256.693 157.446ZM256.693 154.942C257.993 154.942 259.009 154.307 259.74 153.038C260.478 151.769 260.847 149.934 260.847 147.534C260.847 145.94 260.678 144.592 260.341 143.492C260.009 142.386 259.531 141.548 258.906 140.979C258.287 140.404 257.549 140.116 256.693 140.116C255.399 140.116 254.383 140.754 253.645 142.029C252.907 143.305 252.535 145.139 252.529 147.534C252.529 149.134 252.695 150.488 253.026 151.594C253.364 152.695 253.842 153.529 254.461 154.098C255.08 154.661 255.824 154.942 256.693 154.942ZM280.521 157.127H274.304V137.922H280.718C282.6 137.922 284.216 138.306 285.566 139.075C286.916 139.838 287.951 140.935 288.67 142.367C289.395 143.792 289.758 145.502 289.758 147.496C289.758 149.497 289.392 151.216 288.661 152.654C287.935 154.092 286.885 155.198 285.51 155.974C284.134 156.742 282.471 157.127 280.521 157.127ZM277.201 154.595H280.361C281.824 154.595 283.04 154.32 284.009 153.77C284.978 153.213 285.704 152.41 286.185 151.36C286.666 150.303 286.907 149.015 286.907 147.496C286.907 145.99 286.666 144.711 286.185 143.661C285.71 142.611 285 141.814 284.056 141.27C283.112 140.726 281.94 140.454 280.54 140.454H277.201V154.595ZM293.361 157.127V137.922H300.207C301.694 137.922 302.929 138.178 303.911 138.691C304.898 139.203 305.636 139.913 306.124 140.819C306.611 141.72 306.855 142.761 306.855 143.942C306.855 145.118 306.608 146.152 306.114 147.046C305.627 147.934 304.889 148.625 303.901 149.119C302.92 149.612 301.685 149.859 300.197 149.859H295.011V147.365H299.935C300.872 147.365 301.635 147.231 302.223 146.962C302.817 146.693 303.251 146.302 303.526 145.79C303.801 145.277 303.939 144.661 303.939 143.942C303.939 143.217 303.798 142.589 303.517 142.057C303.242 141.526 302.807 141.12 302.213 140.838C301.626 140.551 300.854 140.407 299.897 140.407H296.259V157.127H293.361ZM302.842 148.462L307.587 157.127H304.286L299.635 148.462H302.842Z" fill="#AD3190"/>
</svg>
