<svg width="357" height="290" viewBox="0 0 357 290" fill="none" xmlns="http://www.w3.org/2000/svg">
<rect x="28.2891" y="35.3076" width="266.068" height="217.905" stroke="#B894C0" stroke-width="1.5" stroke-dasharray="10 12"/>
<rect x="229.447" y="59.8899" width="27.1061" height="28.0791" transform="rotate(129.455 229.447 59.8899)" fill="#F7EBF4" stroke="#3A032D"/>
<rect x="112.961" y="12.0969" width="31.8581" height="37.6566" fill="#F7EBF4" stroke="#3A032D"/>
<circle cx="127.442" cy="163.119" r="125.617" fill="#F7EBF4" stroke="#3A032D"/>
<circle cx="127.441" cy="163.119" r="98.5482" fill="white" stroke="#3A032D"/>
<rect x="92.373" y="209.656" width="17.3955" height="24.3199" fill="#AD3190"/>
<rect x="118.043" y="187.363" width="17.3955" height="46.6131" fill="#AD3190"/>
<rect x="143.715" y="169.123" width="17.3955" height="64.8531" fill="#AD3190"/>
<path d="M127.441 75.3805C141.876 75.3805 156.087 78.9731 168.805 85.8378C181.524 92.7026 192.355 102.626 200.332 114.723L127.441 163.324L127.441 75.3805Z" fill="#FDB71C"/>
<rect x="95.5645" y="0.5" width="66.6491" height="26.0596" fill="#F7EBF4" stroke="#3A032D"/>
<rect x="206.358" y="27.6079" width="46.9934" height="22.3778" transform="rotate(38.7471 206.358 27.6079)" fill="#F7EBF4" stroke="#3A032D"/>
<rect x="171" y="155.287" width="185" height="77" fill="white"/>
<rect x="171" y="155.287" width="185" height="77" stroke="#3A032D"/>
<rect width="59.7568" height="52.6216" transform="translate(179.918 167.477)" fill="#F7EBF4"/>
<path d="M208.869 189.403L216.136 181.773C217.374 180.54 219.478 180.513 220.846 181.893C222.22 183.278 222.188 185.41 220.952 186.657L220.925 186.684L220.907 186.703L218.094 189.708C217.256 190.603 217.296 192.013 218.183 192.858C219.071 193.703 220.469 193.662 221.307 192.768L224.101 189.784C227.116 186.716 226.982 181.779 223.971 178.741C220.951 175.696 216.038 175.569 212.998 178.635L212.967 178.667L205.171 186.852C205.021 187.009 204.899 187.182 204.804 187.366C203.62 188.899 203.099 190.783 203.223 192.624C203.347 194.478 204.123 196.304 205.531 197.724C206.394 198.594 207.793 198.594 208.656 197.724C209.518 196.854 209.518 195.443 208.656 194.573C208.023 193.935 207.68 193.036 207.632 192.324C207.584 191.612 207.792 191.086 207.875 190.82C207.958 190.555 208.256 190.106 208.55 189.808C208.674 189.683 208.781 189.547 208.869 189.403Z" fill="#AD3190"/>
<path d="M201 195.195C200.137 194.324 198.738 194.325 197.875 195.195C197.512 195.561 196.946 196.119 196.463 196.593C196.223 196.828 196.006 197.04 195.85 197.193L195.597 197.439L195.57 197.467C192.583 200.479 192.496 205.734 195.57 208.834C198.576 211.865 203.458 212.005 206.502 208.981L214.051 202.069C214.085 202.038 214.118 202.007 214.15 201.975C217.19 198.908 217.064 193.953 214.045 190.907C213.182 190.037 211.783 190.037 210.92 190.907C210.057 191.778 210.057 193.189 210.92 194.059C212.281 195.431 212.262 197.537 211.059 198.789L203.495 205.714C203.469 205.738 203.443 205.763 203.418 205.788C202.182 207.035 200.068 207.067 198.694 205.682C197.379 204.356 197.404 201.934 198.683 200.63L198.923 200.395C199.082 200.24 199.301 200.026 199.543 199.788C200.025 199.316 200.612 198.738 201 198.346C201.863 197.476 201.863 196.065 201 195.195Z" fill="#AD3190"/>
<rect width="98.4865" height="52.6216" transform="translate(248.594 167.477)" fill="#FDB71C"/>
<rect x="338.162" y="183.977" width="5.35135" height="80.6486" transform="rotate(90 338.162 183.977)" fill="white"/>
<rect x="305.676" y="198.247" width="5.35135" height="48.1622" transform="rotate(90 305.676 198.247)" fill="white"/>
<rect x="1" y="86.2874" width="154" height="40" fill="white"/>
<rect x="1" y="86.2874" width="154" height="40" stroke="#3A032D"/>
<path fill-rule="evenodd" clip-rule="evenodd" d="M29.1153 108.943C28.8299 108.658 28.781 108.217 28.958 107.854C29.4533 106.839 29.7312 105.698 29.7312 104.493C29.7312 100.253 26.2945 96.8164 22.0551 96.8164C17.8156 96.8164 14.3789 100.253 14.3789 104.493C14.3789 108.732 17.8156 112.169 22.0551 112.169C23.4648 112.169 24.7859 111.789 25.9213 111.125C26.2932 110.908 26.7713 110.942 27.0758 111.246L31.3311 115.501C31.6737 115.844 32.2291 115.844 32.5717 115.501L33.5022 114.571C33.8448 114.228 33.8448 113.673 33.5022 113.33L29.1153 108.943Z" fill="#3A032D"/>
<circle cx="22.0552" cy="104.493" r="5.48297" fill="white"/>
<rect x="129.191" y="103.612" width="5.35136" height="84.7297" transform="rotate(90 129.191 103.612)" fill="#B894C0"/>
<rect x="98" y="143.368" width="6.24325" height="55.2973" transform="rotate(90 98 143.368)" fill="#B894C0"/>
<rect x="98" y="155.855" width="6.24325" height="55.2973" transform="rotate(90 98 155.855)" fill="#B894C0"/>
<rect x="81.0547" y="168.341" width="6.24325" height="38.3514" transform="rotate(90 81.0547 168.341)" fill="#B894C0"/>
</svg>
