<svg width="383" height="265" viewBox="0 0 383 265" fill="none" xmlns="http://www.w3.org/2000/svg">
<rect x="63.75" y="0.75" width="298.5" height="244.5" stroke="#B894C0" stroke-width="1.5" stroke-dasharray="10 12"/>
<path d="M181.316 70.5868L197.454 45.1536C197.497 45.087 197.449 45 197.37 45H47.1819C47.103 45 47.0552 45.087 47.0974 45.1536L63.2357 70.5868H181.316Z" fill="#EDEFFF"/>
<path d="M181.316 70.5868L197.454 45.1536C197.497 45.087 197.449 45 197.37 45H47.1819C47.103 45 47.0552 45.087 47.0974 45.1536L63.2357 70.5868H181.316Z" fill="#AD3190"/>
<path d="M181.316 70.5868L197.454 45.1536C197.497 45.087 197.449 45 197.37 45H47.1819C47.103 45 47.0552 45.087 47.0974 45.1536L63.2357 70.5868H181.316Z" stroke="#844375"/>
<path d="M79.4655 96.1802H165.088L181.317 70.5868H63.2363L79.4655 96.1802Z" fill="#AD3190" fill-opacity="0.7" stroke="#844375"/>
<path d="M96.1051 122.407H148.447L165.087 96.1804H79.4648L96.1051 122.407Z" fill="#AD3190" fill-opacity="0.4" stroke="#844375"/>
<path d="M96.1055 122.407L112.312 147.954C112.33 147.982 112.362 148 112.396 148H132.157C132.191 148 132.223 147.982 132.241 147.954L148.447 122.407H96.1055Z" fill="white" stroke="#844375"/>
<rect x="1" y="164" width="241" height="100" fill="white"/>
<rect x="1" y="164" width="241" height="100" stroke="#844375"/>
<path d="M32.3517 199.637C36.2301 197.364 40.7086 196.34 45.1806 196.695C45.2043 196.697 45.2325 196.72 45.2283 196.76L43.0333 217.702C42.9554 218.445 43.6449 219.035 44.3668 218.845L64.7247 213.465C64.7636 213.455 64.7909 213.479 64.7963 213.502C65.8326 217.867 65.5071 222.449 63.8564 226.63C62.1377 230.983 59.0725 234.673 55.1083 237.16C51.1441 239.647 46.4886 240.802 41.8215 240.456C37.1545 240.11 32.7203 238.281 29.1665 235.236C25.6127 232.191 23.1254 228.089 22.0677 223.53C21.0101 218.972 21.4376 214.194 23.2877 209.895C25.1379 205.597 28.3138 202.002 32.3517 199.637Z" fill="#B894C0" stroke="#3A032D"/>
<path d="M66.114 192.962C69.6345 195.983 72.1996 199.986 73.4957 204.468C73.5118 204.524 73.4788 204.583 73.4229 204.598L51.6325 210.48C51.5716 210.497 51.4922 210.447 51.5006 210.357L53.6096 187.582C53.6164 187.509 53.6735 187.48 53.7116 187.485C58.28 188.038 62.5936 189.94 66.114 192.962Z" fill="#FDB71C" stroke="#3A032D"/>
<rect x="160.168" y="185.491" width="18" height="66" transform="rotate(90 160.168 185.491)" fill="#AD3190"/>
<rect x="192.947" y="211.575" width="6" height="98.78" transform="rotate(90 192.947 211.575)" fill="#B894C0"/>
<rect x="222" y="211.575" width="6" height="24.6747" transform="rotate(90 222 211.575)" fill="#B894C0"/>
<rect x="124.076" y="224.042" width="6" height="29.9088" transform="rotate(90 124.076 224.042)" fill="#B894C0"/>
<rect x="222" y="224.042" width="6" height="93.546" transform="rotate(90 222 224.042)" fill="#B894C0"/>
<rect x="158.473" y="236.509" width="6" height="64.3039" transform="rotate(90 158.473 236.509)" fill="#B894C0"/>
<rect x="173.5" y="53.5" width="209" height="134" fill="#F7EBF4"/>
<rect x="173.5" y="53.5" width="209" height="134" stroke="#844375"/>
<rect x="194.41" y="130.468" width="27" height="36" fill="white"/>
<rect x="194.41" y="130.468" width="27" height="36" fill="#AD3190"/>
<rect x="194.41" y="130.468" width="27" height="36" stroke="#3A032D"/>
<rect x="239.469" y="95.468" width="28" height="71" fill="white"/>
<rect x="239.469" y="95.468" width="28" height="71" fill="#AD3190"/>
<rect x="239.469" y="95.468" width="28" height="71" stroke="#3A032D"/>
<rect x="285.529" y="108.468" width="29" height="58" fill="#AD3190" stroke="#3A032D"/>
<rect x="332.588" y="74.468" width="29" height="92" fill="white" stroke="#3A032D"/>
<path d="M179.162 108.955C178.861 109.418 178.992 110.037 179.455 110.338C179.918 110.639 180.537 110.508 180.838 110.045L179.162 108.955ZM226.842 37.5062L227.497 36.7505C227.278 36.5612 226.988 36.4756 226.702 36.516C226.416 36.5563 226.161 36.7185 226.003 36.9608L226.842 37.5062ZM277.847 81.7049L277.192 82.4606C277.399 82.64 277.671 82.7266 277.943 82.7003C278.216 82.674 278.466 82.5371 278.635 82.3215L277.847 81.7049ZM325.993 21.3793C325.926 20.8311 325.428 20.4407 324.879 20.5073L315.945 21.5935C315.397 21.6602 315.006 22.1586 315.073 22.7069C315.14 23.2551 315.638 23.6455 316.186 23.5789L324.128 22.6134L325.094 30.5549C325.16 31.1032 325.659 31.4936 326.207 31.4269C326.755 31.3602 327.146 30.8618 327.079 30.3135L325.993 21.3793ZM180.838 110.045L227.68 38.0516L226.003 36.9608L179.162 108.955L180.838 110.045ZM226.187 38.2619L277.192 82.4606L278.502 80.9492L227.497 36.7505L226.187 38.2619ZM278.635 82.3215L325.787 22.1166L324.213 20.8834L277.06 81.0883L278.635 82.3215Z" fill="#FDB71C"/>
</svg>
