<?xml version="1.0" encoding="UTF-8"?>
<svg version="1.1" xmlns="http://www.w3.org/2000/svg" width="513" height="111">
<path d="M0 0 C3.96 0 7.92 0 12 0 C12 11.55 12 23.1 12 35 C18.68973722 29.70965726 18.68973722 29.70965726 25 24 C26.87939453 23.77294922 26.87939453 23.77294922 29.1328125 23.8046875 C29.93847656 23.81113281 30.74414062 23.81757813 31.57421875 23.82421875 C32.83685547 23.84935547 32.83685547 23.84935547 34.125 23.875 C35.39923828 23.88853516 35.39923828 23.88853516 36.69921875 23.90234375 C38.79959884 23.92594353 40.89983444 23.96181517 43 24 C41.47269638 27.88847991 39.12557367 29.76365184 35.875 32.3125 C31.63612697 35.67686178 27.54699541 39.1284304 23.55859375 42.78515625 C22 44 22 44 20 44 C23.95313029 48.75610987 28.02280113 53.06490213 32.7421875 57.0625 C36.47462508 60.26542221 40.06413631 63.62737916 43.6796875 66.9609375 C45.81946882 69.01577328 45.81946882 69.01577328 48 70 C48.33 54.82 48.66 39.64 49 24 C52.96 24 56.92 24 61 24 C61 24.99 61 25.98 61 27 C61.98484375 26.51015625 62.9696875 26.0203125 63.984375 25.515625 C68.1404269 23.73685153 71.78250886 23.61664206 76.25 23.75 C77.30960938 23.75773437 77.30960938 23.75773437 78.390625 23.765625 C81.50989581 23.81288668 84.02305287 24.00768429 87 25 C86.25 31.625 86.25 31.625 84 35 C81.8984375 35.15234375 81.8984375 35.15234375 79.375 34.9375 C74.20922321 34.80313008 69.98125437 35.53161464 66 39 C60.64263312 45.60549895 61.33141906 53.32494234 61.25 61.4375 C61.22180559 62.85094752 61.19187335 64.26436151 61.16015625 65.67773438 C61.0867005 69.11833257 61.03687575 72.55879277 61 76 C37.32550873 78.25636647 37.32550873 78.25636647 30.4375 73.3515625 C27.42963005 70.69945367 24.83498136 67.73628421 22.33398438 64.60742188 C20.47826681 62.37132296 18.35169958 60.54564241 16.125 58.6875 C15.09375 57.800625 14.0625 56.91375 13 56 C12.67 62.6 12.34 69.2 12 76 C8.04 76 4.08 76 0 76 C0 50.92 0 25.84 0 0 Z " fill="#3A032D" transform="translate(65,8)"/>
<path d="M0 0 C0.6909375 -0.020625 1.381875 -0.04125 2.09375 -0.0625 C7.19852042 -0.10088173 10.67946746 0.97669847 15.25 3.25 C15.25 2.26 15.25 1.27 15.25 0.25 C18.88 0.25 22.51 0.25 26.25 0.25 C26.37416098 7.61484725 26.46460693 14.97907703 26.5246582 22.34472656 C26.54970793 24.84711326 26.58375742 27.34942748 26.62719727 29.8515625 C26.68826661 33.46112007 26.71630674 37.06970519 26.73828125 40.6796875 C26.76408768 41.78738495 26.7898941 42.8950824 26.81648254 44.03634644 C26.81941052 52.25724874 25.06133133 58.83478476 19.60176086 65.15939331 C14.43661793 70.2871073 7.40143444 72.27826378 0.25 72.625 C-8.05529287 72.20638645 -14.20916214 69.5041938 -20.3515625 63.96875 C-21.75 62.25 -21.75 62.25 -21.75 59.25 C-18.95786977 56.97733586 -16.74741791 55.44461813 -13.1875 54.75 C-10.75 55.25 -10.75 55.25 -8.5 57.1875 C-4.72407791 60.01944157 -1.43077623 60.58663117 3.25 60.25 C7.1613256 58.9712974 9.72800012 56.95722564 12.1875 53.625 C13.38612202 51.37936596 13.38612202 51.37936596 13.25 49.25 C12.693125 49.4665625 12.13625 49.683125 11.5625 49.90625 C2.56438399 53.18934638 -4.92698564 53.0415895 -13.75 49.25 C-19.92346314 45.62488502 -23.73276516 40.06039904 -25.75 33.25 C-26.73790565 25.04345046 -26.94051149 17.04669583 -21.75 10.25 C-15.4634585 2.97084668 -9.45893291 0.06904331 0 0 Z M-9.421875 14.765625 C-13.11482208 18.66959763 -14.84916525 21.69674608 -14.75 27.25 C-12.94387158 33.06974715 -10.12832245 37.19637245 -4.8671875 40.39453125 C-1.1371239 41.90169717 2.42015515 41.19547154 6.25 40.25 C11.30402252 37.17363846 13.653936 33.54910402 15.125 27.875 C15.30054108 22.78430875 14.11020053 19.38347741 10.734375 15.51171875 C4.22539979 9.36923989 -2.50105239 8.49160824 -9.421875 14.765625 Z " fill="#3A032D" transform="translate(361.75,31.75)"/>
<path d="M0 0 C0.33 -0.66 0.66 -1.32 1 -2 C4.96 -2 8.92 -2 13 -2 C13 15.16 13 32.32 13 50 C9.04 50 5.08 50 1 50 C0.67 49.01 0.34 48.02 0 47 C-0.54527344 47.2165625 -1.09054688 47.433125 -1.65234375 47.65625 C-10.59817008 50.95932434 -17.51026575 50.89194577 -26.41796875 47.31640625 C-33.20090154 43.85823931 -36.8480171 38.70930481 -39.34375 31.609375 C-41.20815831 24.19613244 -40.46906185 16.82740897 -37 10 C-28.91059496 -2.04850538 -13.48600031 -6.64990153 0 0 Z M-25.375 14.5625 C-28.15403538 18.73105307 -28.33413325 22.07153453 -28 27 C-25.95682161 32.67549553 -22.40252559 36.29873721 -17 39 C-11.27955337 39.55004295 -8.43145441 38.64364029 -4 35 C-0.66002736 31.29894924 0.83029663 28.76491504 1.3125 23.75 C0.83832949 18.05995385 -1.37639236 14.71380806 -5.25 10.625 C-13.15646665 5.95299698 -19.40201879 8.11796764 -25.375 14.5625 Z " fill="#3A032D" transform="translate(247,34)"/>
<path d="M0 0 C6.07861275 3.31243716 10.42036187 8.42443934 12.875 14.875 C13.9375 19.5 13.9375 19.5 13.9375 29.5 C0.7375 29.5 -12.4625 29.5 -26.0625 29.5 C-25.0725 30.82 -24.0825 32.14 -23.0625 33.5 C-23.0625 34.16 -23.0625 34.82 -23.0625 35.5 C-22.27875 35.809375 -21.495 36.11875 -20.6875 36.4375 C-18.0625 37.5 -18.0625 37.5 -16.0625 38.5 C-9.97826611 38.55976654 -6.7373219 37.41674268 -2.0625 33.5 C1.99162149 32.82431309 3.41289234 33.13505554 6.8125 35.5 C7.51375 36.16 8.215 36.82 8.9375 37.5 C8.19130552 41.7652845 6.37755631 43.44746979 3.09375 46.10546875 C-3.54857027 50.40131719 -11.59208596 51.65775958 -19.27734375 50.03125 C-26.37444824 47.99310717 -32.64866991 44.3308267 -36.5 37.875 C-39.85038392 30.63817074 -40.50446875 22.37843634 -38.2265625 14.671875 C-35.13363996 7.90480958 -30.44264048 2.75048597 -23.796875 -0.6640625 C-16.71740185 -2.82835858 -6.88370122 -2.68690237 0 0 Z M-22.0625 12.5 C-25.15158688 15.53748893 -25.15158688 15.53748893 -26.0625 19.5 C-17.1525 19.5 -8.2425 19.5 0.9375 19.5 C-2.30815425 13.00450305 -2.30815425 13.00450305 -8.0625 9.5 C-13.9929697 7.77477245 -17.3835822 8.79392649 -22.0625 12.5 Z " fill="#3A032D" transform="translate(192.0625,33.5)"/>
<path d="M0 0 C6.35259598 4.06851653 10.94057735 9.87605683 12.9375 17.15234375 C14.46066931 25.32577904 13.4862327 32.21969209 9.375 39.5 C4.84468447 45.93846473 -1.09103401 48.69654355 -8.625 50.5 C-16.42147 51.77316093 -24.28948409 49.52123752 -30.73828125 45.02734375 C-36.09772918 40.17285451 -39.0046407 34.09629845 -39.96875 26.953125 C-40.26440302 19.019769 -38.45694097 12.38731179 -33.4375 6.1875 C-25.07429877 -2.45160065 -11.30443364 -4.96508458 0 0 Z M-25 15.0625 C-27.77903538 19.23105307 -27.95913325 22.57153453 -27.625 27.5 C-25.58182161 33.17549553 -22.02752559 36.79873721 -16.625 39.5 C-10.90455337 40.05004295 -8.05645441 39.14364029 -3.625 35.5 C-0.28502736 31.79894924 1.20529663 29.26491504 1.6875 24.25 C1.21332949 18.55995385 -1.00139236 15.21380806 -4.875 11.125 C-12.78146665 6.45299698 -19.02701879 8.61796764 -25 15.0625 Z " fill="#3A032D" transform="translate(319.625,33.5)"/>
<path d="M0 0 C3.96 0 7.92 0 12 0 C16.97692585 10.42043849 20.96083504 21.1892495 25 32 C26.53015493 28.24642224 28.06009591 24.49275736 29.58984375 20.73901367 C30.10964254 19.46359941 30.62949849 18.18820845 31.14941406 16.9128418 C31.89924114 15.07346715 32.6488416 13.23400012 33.3984375 11.39453125 C33.84880371 10.28956299 34.29916992 9.18459473 34.76318359 8.04614258 C35.85075153 5.36758254 36.92633481 2.68416298 38 0 C42.29 0 46.58 0 51 0 C50.29522005 3.52389975 49.64207427 6.21710412 48.36108398 9.47290039 C47.85936928 10.75693504 47.85936928 10.75693504 47.34751892 12.06690979 C46.98404861 12.98455612 46.62057831 13.90220245 46.24609375 14.84765625 C45.67738304 16.29742104 45.67738304 16.29742104 45.09718323 17.776474 C43.88116777 20.8733571 42.65935687 23.96791762 41.4375 27.0625 C40.64221119 29.0864444 39.84728586 31.11053166 39.05273438 33.13476562 C37.09654581 38.11377501 35.13228401 43.08953667 33.16278076 48.06329346 C32.38153943 50.03638813 31.60115679 52.00982299 30.82159424 53.98358154 C29.70807293 56.80136826 28.59095996 59.61770217 27.47265625 62.43359375 C27.13592392 63.28671646 26.79919159 64.13983917 26.45225525 65.01881409 C24.11480719 70.88519281 24.11480719 70.88519281 23 72 C20.98035801 72.07244053 18.95832876 72.08377188 16.9375 72.0625 C15.83277344 72.05347656 14.72804688 72.04445313 13.58984375 72.03515625 C12.73519531 72.02355469 11.88054687 72.01195313 11 72 C11.45630895 67.73517288 12.6357942 64.74313899 14.66244507 60.99273682 C17.52284487 55.25632134 18.52760872 50.72904168 16.80371094 44.45507812 C14.69488255 38.23118182 12.0503528 32.24670772 9.375 26.25 C8.03961642 23.12207449 6.71925477 19.98818063 5.4022522 16.85247803 C4.58178923 14.91432023 3.74762859 12.98188999 2.89828491 11.05621338 C2.51854523 10.18720398 2.13880554 9.31819458 1.74755859 8.42285156 C1.4096933 7.66280823 1.071828 6.90276489 0.72372437 6.11968994 C0 4 0 4 0 0 Z " fill="#3A032D" transform="translate(392,32)"/>
<path d="M0 0 C3.96 0 7.92 0 12 0 C12 24.75 12 49.5 12 75 C8.04 75 4.08 75 0 75 C0 50.25 0 25.5 0 0 Z " fill="#3A032D" transform="translate(264,9)"/>
</svg>
